<?xml version="1.0" encoding="UTF-8" standalone="no"?>
<svg
   xmlns:dc="http://purl.org/dc/elements/1.1/"
   xmlns:cc="http://creativecommons.org/ns#"
   xmlns:rdf="http://www.w3.org/1999/02/22-rdf-syntax-ns#"
   xmlns:svg="http://www.w3.org/2000/svg"
   xmlns="http://www.w3.org/2000/svg"
   id="svg8"
   version="1.1"
   viewBox="0 0 22.207518 10.558975"
   height="10.558975mm"
   width="22.207518mm">
  <defs
     id="defs2" />
  <metadata
     id="metadata5">
    <rdf:RDF>
      <cc:Work
         rdf:about="">
        <dc:format>image/svg+xml</dc:format>
        <dc:type
           rdf:resource="http://purl.org/dc/dcmitype/StillImage" />
        <dc:title></dc:title>
      </cc:Work>
    </rdf:RDF>
  </metadata>
  <g
     transform="translate(-159.2647,-231.12159)"
     id="layer1">
    <path
       id="path896"
       d="m 168.79631,241.51587 c -0.94086,-0.33499 -1.60778,-0.81939 -2.27785,-1.65448 -0.49654,-0.61882 -0.78416,-1.21568 -0.9288,-1.92745 l -0.10835,-0.53321 -0.37672,-0.0251 -0.37672,-0.0251 -0.10138,0.91495 c -0.12143,1.09584 -0.37388,1.95153 -0.64738,2.19426 -0.1573,0.13961 -0.32747,0.18126 -0.79658,0.19495 -0.66327,0.0194 -0.8493,-0.0914 -1.08834,-0.64793 -0.11486,-0.26744 -0.13321,-0.27544 -0.63196,-0.27544 h -0.51367 l -0.14202,-0.33503 c -0.13792,-0.32535 -0.15524,-0.33575 -0.59953,-0.36019 -0.37356,-0.0205 -0.48614,-0.064 -0.61364,-0.23705 -0.46121,-0.62585 -0.42881,-3.44967 0.0456,-3.97388 0.16009,-0.1769 0.78479,-0.20594 0.75155,-0.0349 -0.21808,1.12217 -0.23441,2.74819 -0.0326,3.24606 0.0623,0.15373 0.0727,-0.0207 0.0378,-0.63564 -0.0827,-1.45879 0.19901,-3.03065 0.59258,-3.30632 0.17323,-0.12134 0.65955,-0.1739 0.75215,-0.0813 0.0246,0.0247 -0.008,0.26301 -0.0729,0.5297 -0.25885,1.06587 -0.21717,3.76263 0.0625,4.04195 0.0599,0.0599 0.066,-0.0324 0.0194,-0.29414 -0.10198,-0.57279 -0.0721,-2.75744 0.0469,-3.43243 0.11225,-0.63657 0.30855,-1.23729 0.50639,-1.54974 0.11521,-0.18192 0.16967,-0.19224 0.89489,-0.1695 l 0.77222,0.0242 0.18775,0.38139 c 0.24918,0.50617 0.41702,1.18096 0.49153,1.9761 l 0.061,0.65119 h -0.22184 c -0.12201,0 -0.22184,0.0381 -0.22184,0.0848 0,0.12972 1.18561,0.10911 1.21894,-0.0212 0.0149,-0.0583 0.0914,-0.3729 0.16994,-0.6992 0.33963,-1.41059 1.66355,-2.85536 3.03349,-3.31038 0.46794,-0.15543 0.56059,-0.11133 0.58938,0.28052 0.008,0.10488 0.0178,0.23237 0.0225,0.28332 0.005,0.051 -0.13095,0.14057 -0.30136,0.19915 -0.96152,0.33055 -1.88579,1.17022 -2.31428,2.10242 -0.94812,2.06274 -0.24857,4.1767 1.79779,5.43266 0.23637,0.14508 0.0731,-0.10232 -0.41036,-0.62199 l -0.51163,-0.54989 0.0266,-1.95028 c 0.0257,-1.87978 0.0342,-1.96507 0.23573,-2.35961 0.2456,-0.48079 0.72844,-0.94189 1.22008,-1.16514 0.43657,-0.19824 0.64724,-0.2053 0.64724,-0.0217 0,0.0777 0.0276,0.1137 0.0612,0.08 0.10333,-0.10334 0.0166,-1.29815 -0.14271,-1.96702 -0.17178,-0.72099 -0.16732,-0.72893 0.46925,-0.83429 0.32339,-0.0535 1.10097,0.0766 1.17236,0.19622 0.0174,0.0292 -0.0382,0.32011 -0.12368,0.6464 -0.0953,0.36383 -0.15349,0.87186 -0.15046,1.31365 0.003,0.39621 0.0224,0.65365 0.0437,0.57207 0.0213,-0.0816 0.10475,-0.14831 0.1854,-0.14831 0.29303,0 1.03358,0.44708 1.3659,0.82462 0.52484,0.59625 0.59381,0.9485 0.59381,3.03251 v 1.79233 l -0.47657,0.52663 c -0.26212,0.28965 -0.4589,0.54431 -0.43729,0.56592 0.0493,0.0493 0.68291,-0.40672 1.09591,-0.78885 0.45861,-0.42431 0.99413,-1.54113 1.07664,-2.24529 0.15335,-1.30872 -0.26948,-2.56345 -1.16517,-3.45759 -0.41226,-0.41154 -1.15242,-0.86065 -1.7148,-1.04049 -0.11268,-0.036 -0.12638,-0.10849 -0.0743,-0.39311 0.0351,-0.19191 0.0875,-0.3726 0.11642,-0.40154 0.1052,-0.1052 1.21152,0.40948 1.74914,0.81372 0.30323,0.22801 0.71831,0.63781 0.9224,0.91067 0.51413,0.68737 0.74327,1.21609 0.97718,2.2547 0.0511,0.22698 0.0679,0.23306 0.64413,0.23306 0.33793,0 0.59165,-0.0363 0.59165,-0.0847 0,-0.0466 -0.0953,-0.0848 -0.21188,-0.0848 -0.24911,0 -0.26125,-0.1053 -0.12024,-1.04316 0.11925,-0.79313 0.29171,-1.38995 0.50063,-1.73245 l 0.168,-0.27544 h 0.71833 c 0.61472,0 0.74165,0.025 0.87998,0.17351 0.41589,0.4464 0.74292,2.46188 0.67319,4.14881 -0.0278,0.67254 -0.0158,0.89583 0.0386,0.72039 0.0434,-0.13984 0.0991,-0.73098 0.12388,-1.31365 0.0408,-0.96057 -0.0134,-1.55469 -0.24914,-2.73319 -0.0319,-0.15932 0.50894,-0.18144 0.73968,-0.0303 0.40891,0.26792 0.68537,1.73519 0.60851,3.22957 -0.0347,0.67521 -0.0241,0.87385 0.0385,0.72039 0.20231,-0.49608 0.18623,-2.12271 -0.0321,-3.24606 -0.0363,-0.1866 0.56465,-0.17159 0.73659,0.0184 0.45347,0.50109 0.53035,2.90031 0.12549,3.91658 -0.0774,0.19428 -0.15266,0.23004 -0.58797,0.27929 -0.47133,0.0533 -0.50973,0.0752 -0.68759,0.39164 -0.1854,0.32989 -0.19607,0.33517 -0.67731,0.33517 h -0.48893 l -0.1655,0.37413 c -0.20747,0.46901 -0.37456,0.55823 -1.04457,0.55774 -0.4761,-3.4e-4 -0.56486,-0.0281 -0.80296,-0.2513 -0.21778,-0.20414 -0.30078,-0.39188 -0.44522,-1.00711 -0.0976,-0.4159 -0.20207,-1.04651 -0.23207,-1.40134 l -0.0545,-0.64516 h -0.36733 c -0.332,0 -0.37218,0.0224 -0.41778,0.23307 -0.35929,1.66003 -1.26944,2.95534 -2.52757,3.59719 -0.28761,0.14673 -1.19724,0.49206 -1.29612,0.49206 -0.0168,0 -0.0204,-0.96215 -0.008,-2.13811 l 0.0226,-2.1381 0.57207,-0.21127 0.57207,-0.21126 v -0.44743 c 0,-0.30161 -0.0345,-0.44731 -0.10594,-0.44709 -0.0583,1.9e-4 -0.48732,0.15076 -0.95345,0.33462 l -0.84751,0.33428 0.0293,0.50721 c 0.0218,0.37755 -0.01,0.57367 -0.12421,0.76716 -0.0844,0.14296 -0.17393,0.25964 -0.19884,0.25928 -0.0249,-3.4e-4 -0.12766,-0.14496 -0.22834,-0.32133 -0.15784,-0.27652 -0.17236,-0.3779 -0.10543,-0.73617 0.0427,-0.22853 0.0488,-0.44163 0.0135,-0.47357 -0.0794,-0.072 -1.68967,-0.67181 -1.80347,-0.67181 -0.0455,0 -0.0828,0.20052 -0.0828,0.4456 v 0.4456 l 0.57207,0.22089 0.57207,0.22089 0.0226,2.1303 c 0.0125,1.17167 -0.007,2.12752 -0.0424,2.12412 -0.0358,-0.003 -0.25766,-0.0748 -0.49312,-0.15862 z m -5.4754,-1.72091 c -0.41038,-1.31742 -0.37916,-4.76166 0.0546,-6.02058 0.14835,-0.43059 0.10429,-0.50856 -0.0829,-0.14664 -0.62213,1.20307 -0.58718,5.30075 0.0558,6.5486 0.14642,0.28413 0.13635,0.1448 -0.0276,-0.38138 z m 14.47427,-1.22597 c 0.22303,-1.66058 0.04,-4.23712 -0.34916,-4.91391 l -0.13665,-0.23766 0.0543,0.25425 c 0.29302,1.3716 0.31594,1.6051 0.31606,3.22056 9e-5,1.42404 -0.0288,1.82311 -0.18072,2.49619 -0.0995,0.44065 -0.17764,0.82203 -0.17372,0.84752 0.004,0.0255 0.0811,-0.11443 0.17144,-0.31093 0.0904,-0.1965 0.22466,-0.80671 0.29843,-1.35602 z"
       style="fill:#000000;stroke-width:0.08475142" />
  </g>
</svg>
